# xmcd
#
# Track frame offsets:
#	180
#	19157
#	41791
#	64488
#	92650
#	128713
#	146919
#	177730
#	205455
#	229510
#	254799
#
# Disc length: 3637 seconds
#
# Revision: 1
# Processed by: cddbd v1.5.1PL0 Copyright (c) Steve Scherf et al.
# Submitted via: EasyCDDAExtractor 7.0.6.1
#
DISCID=ae0e330b
DTITLE=Rich Lerner and the Groove - Cover Down
DYEAR=1999
DGENRE=Blues
TTITLE0=one too amny mornings
TTITLE1=covenant woman
TTITLE2=simple twist of fate
TTITLE3=every grain of sand
TTITLE4=she's your lover now
TTITLE5=love minus zero/no limit
TTITLE6=to ramona
TTITLE7=changing of the guard
TTITLE8=if you see her say hello
TTITLE9=sara
TTITLE10=forever young
EXTD=
EXTT0=
EXTT1=
EXTT2=
EXTT3=
EXTT4=
EXTT5=
EXTT6=
EXTT7=
EXTT8=
EXTT9=
EXTT10=
PLAYORDER=
